<svg width="61" height="40" viewBox="0 0 61 40" fill="none" xmlns="http://www.w3.org/2000/svg">
<path fill-rule="evenodd" clip-rule="evenodd" d="M26.757 22.6193H34.1908C35.8846 22.6193 37.1904 22.7649 38.4229 23.2093C40.6351 24.0061 42.5952 25.8295 43.3963 28.081C43.8509 29.3595 44.2153 30.8894 43.8518 32.1796C43.4702 33.536 42.555 34.0634 41.5946 34.8452C39.7436 36.3519 36.0941 37.7985 33.8622 38.1632C33.4403 38.2321 33.2157 38.2477 32.8022 38.3091C32.3987 38.3686 32.2075 38.3851 31.6768 38.3888C31.1109 38.3924 31.0291 38.5 30.474 38.5C29.9349 38.5 29.8826 38.4011 29.3717 38.3888C26.9127 38.3286 24.7054 37.653 22.5086 36.7127C21.6294 36.336 20.1894 35.4655 19.4076 34.8912C18.4211 34.1662 17.5139 33.4521 17.1086 32.268C16.6907 31.049 17.1161 29.1436 17.5136 28.1432C19.134 24.0653 22.4894 22.619 26.7573 22.619L26.757 22.6193ZM22.0353 10.4639C22.0353 8.77823 22.0949 7.82295 22.8388 6.34478C23.0625 5.89977 23.2754 5.47671 23.5688 5.06598C24.1756 4.21654 24.414 4.08814 25.0238 3.50722C25.2166 3.3235 25.3588 3.21345 25.5783 3.0565C25.9791 2.77025 26.4181 2.54141 26.8556 2.32522C30.035 0.754145 33.7512 1.50315 36.4153 3.92006C37.7374 5.11979 38.9128 7.63502 38.9128 9.56001C38.9128 11.2207 38.8214 12.2692 38.0781 13.7485C37.204 15.4877 35.6768 16.9923 33.848 17.7561C31.58 18.7038 29.3681 18.7038 27.1004 17.7561C26.2572 17.4043 25.21 16.7082 24.6209 16.1164C23.1948 14.6843 22.0356 12.6586 22.0356 10.4642L22.0353 10.4639Z" fill="#595959"/>
</svg>
