<svg width="60" height="40" viewBox="0 0 60 40" fill="none" xmlns="http://www.w3.org/2000/svg">
<path fill-rule="evenodd" clip-rule="evenodd" d="M8.81252 22.7087C8.81252 21.7751 9.01511 20.6122 9.22647 19.7946C10.7369 13.9503 17.1204 9.40479 24.1872 9.40479C28.7704 9.40479 32.5378 10.7518 35.6514 13.2857C35.873 13.466 35.9043 13.5324 36.0794 13.7185C36.2374 13.8861 36.3679 13.9613 36.5346 14.1286C40.3772 17.9888 41.4222 23.8895 38.7504 28.3922C37.8504 29.9094 37.6482 30.0955 36.4694 31.3929C35.838 32.088 34.255 33.2386 33.413 33.7349C32.5863 34.2229 31.8793 34.539 30.9389 34.8988C27.8128 36.0941 23.866 36.4679 20.5193 35.624C18.7907 35.1883 18.7293 35.1637 17.1551 34.4994C15.6245 33.8536 16.0159 33.9836 13.4918 34.4125L9.56222 35.0567C9.73542 34.7789 11.4374 30.6363 11.4374 30.4359C11.4374 30.15 11.1917 29.7551 11.0585 29.5629C10.516 28.779 10.0105 27.8774 9.6679 27.0005C9.17345 25.7338 8.81215 24.1346 8.81215 22.7084L8.81252 22.7087ZM54 16.6765V17.7839C53.9031 20.2553 53.1595 22.7049 51.8071 24.7547C51.5305 25.1739 51.5709 25.1869 52.0974 26.3171C52.3641 26.8896 54 30.8071 54 31.1534C54 31.8825 53.425 32.4278 52.6876 32.4278C52.1138 32.4278 45.5788 31.2536 44.7402 31.1258C44.3099 31.0603 44.2488 31.1472 43.875 31.3119C42.4725 31.9285 41.212 32.3286 39.639 32.6518C38.3891 32.9089 38.9587 32.7494 38.1804 33.4039C37.3129 34.1337 36.6819 34.7027 35.6789 35.3413C30.0195 38.9441 22.8466 39.4466 16.4371 36.9425C16.307 36.8916 15.6649 36.5703 15.6565 36.5703C15.1976 36.5703 13.5307 36.892 12.9611 36.9886C12.1306 37.1296 11.2924 37.2664 10.3668 37.4129C9.42906 37.5611 8.63628 37.7199 7.71034 37.871C6.90877 38.002 6.00037 37.4888 6.00037 36.8093C6.00037 36.039 7.53141 32.6554 7.93276 31.6799C8.349 30.6677 8.56187 30.695 8.17807 30.1824C7.96098 29.8926 7.90986 29.7788 7.74161 29.4339C6.28346 26.4445 6 25.4975 6 21.9913C6 20.3817 6.61004 18.4706 7.11288 17.2808C8.49168 14.0184 11.1196 11.4009 14.4559 9.49946C15.7561 8.75835 17.4413 8.10735 18.9715 7.68039C21.9382 6.85272 20.4606 7.88268 22.1957 6.19816L23.935 4.8881C29.4686 1.06131 37.7058 0.386334 44.0932 3.32321C47.948 5.09591 50.2768 7.23754 52.25 10.5725C53.3411 12.4169 53.9161 14.5335 54 16.6758V16.6765ZM35.4374 3.90806C38.8603 3.90806 41.8392 4.84562 44.3633 6.28116C45.5937 6.98109 46.4895 7.74685 47.4593 8.66918C48.3955 9.5591 49.1227 10.6792 49.7511 11.7406C51.4232 14.565 51.5675 18.5717 50.3695 21.4564C50.1223 22.0513 49.8495 22.6653 49.5336 23.2158C48.2731 25.4132 48.2139 24.0607 49.4417 27.2196C49.6404 27.7315 50.3088 29.2082 50.3432 29.5603C49.8876 29.5515 49.2662 29.3933 48.8305 29.3321L45.7726 28.8234C43.4885 28.4353 44.0432 28.5365 42.6243 29.1356C42.2096 29.3107 41.7011 29.5506 41.249 29.64C41.3249 29.3625 41.4935 29.1599 41.6122 28.9129C42.033 28.0356 42.2718 27.4932 42.5633 26.5349C44.0264 21.7252 42.5084 16.5127 38.9774 12.849C38.7626 12.6263 38.7046 12.543 38.4593 12.3332C38.214 12.1238 38.169 12.0194 37.9454 11.8139C37.3598 11.2754 37.1393 11.2096 36.7719 10.899C34.2814 8.79401 29.2793 7.01481 25.4989 7.01481C26.3348 5.95437 30.3987 4.49129 32.3028 4.19238C33.2146 4.04941 34.4351 3.90773 35.4366 3.90773L35.4374 3.90806Z" fill="#595959"/>
<path fill-rule="evenodd" clip-rule="evenodd" d="M17.719 18.5662V26.9311C17.719 28.52 20.625 28.6872 20.625 26.8513V18.7254C20.625 16.7167 17.719 16.9683 17.719 18.5662Z" fill="#595959"/>
<path fill-rule="evenodd" clip-rule="evenodd" d="M28.5002 19.6818V25.8956C28.5002 27.2822 31.3128 27.4411 31.3128 25.8159V19.5223C31.3128 18.2466 28.5002 18.0031 28.5002 19.6814V19.6818Z" fill="#595959"/>
<path fill-rule="evenodd" clip-rule="evenodd" d="M23.0625 21.2748V24.1427C23.0625 26.3135 25.9689 25.8885 25.9689 24.5411V21.0359C25.9689 19.4279 23.0625 19.2762 23.0625 21.2748Z" fill="#595959"/>
<path fill-rule="evenodd" clip-rule="evenodd" d="M12.3751 21.0359V24.4614C12.3751 26.1002 15.1876 25.9219 15.1876 24.6209V20.9562C15.1876 19.427 12.3751 19.402 12.3751 21.0359Z" fill="#595959"/>
<path fill-rule="evenodd" clip-rule="evenodd" d="M33.8441 21.992C33.8441 23.164 33.4935 24.7006 35.4377 24.7006C36.1279 24.7006 36.7501 24.1051 36.7501 23.2667V22.2312C36.7501 20.2115 33.8441 20.3885 33.8441 21.9923V21.992Z" fill="#595959"/>
</svg>
