<svg width="61" height="40" viewBox="0 0 61 40" fill="none" xmlns="http://www.w3.org/2000/svg">
<path fill-rule="evenodd" clip-rule="evenodd" d="M7.89782 22.1385V34.6865C7.89782 36.0295 8.4891 37.0335 9.22731 38.0036C9.54172 38.417 10.0298 38.7866 10.468 39.0799C10.7192 39.2481 10.8867 39.3514 11.2152 39.49L12.0657 39.7957C11.9166 38.2853 11.9195 37.4038 12.4082 35.9295C13.228 33.4574 14.66 31.7846 16.9429 30.5638C16.2216 29.4755 15.6127 28.6199 15.6127 27.0683C15.6127 25.6691 16.2318 24.344 17.1291 23.4023C17.1418 23.3892 17.1598 23.3699 17.1728 23.3571C19.6852 20.8178 23.9037 21.5694 25.3977 24.618C27.0976 28.0865 24.7924 30.1026 24.7469 30.6536C25.2754 30.778 26.2312 31.4825 26.5875 31.8407C27.0546 32.3103 26.8276 31.971 27.3459 32.5978C29.2277 34.8722 29.6241 36.2353 29.6241 39.3474C29.6241 39.6564 29.5584 39.6943 29.5353 39.9749C34.3537 39.9749 39.172 39.9749 43.9904 39.9749C47.233 39.9749 50.4642 40.4317 52.4005 37.4502C52.8174 36.8081 53.3018 35.7223 53.3018 34.6865V22.1385C53.3018 19.9955 51.6785 18.0476 49.7187 17.2449C49.0802 16.9833 48.1333 16.8505 47.2713 16.8505H13.9276C12.2036 16.8505 10.4857 17.396 9.40526 18.6437C8.59558 19.5788 7.89709 20.7802 7.89709 22.1389L7.89782 22.1385Z" fill="#595959"/>
<path fill-rule="evenodd" clip-rule="evenodd" d="M12.3319 3.67485C11.3031 3.67485 9.99416 3.55335 9.23646 3.86274C8.50837 4.16008 7.98278 4.90255 7.89795 5.73511V6.21087C7.96076 6.81833 8.2694 7.43746 8.90941 7.94094L10.5584 9.14272C10.3966 9.48349 9.76024 11.4022 9.76024 11.8316C9.76024 12.4923 10.0833 13.1527 10.4039 13.5113C10.95 14.1217 11.9864 14.4242 12.9314 14.0513C13.5321 13.8141 14.4988 12.9075 15.1695 12.5489L17.0333 13.8915C18.6317 14.8915 20.7773 13.4789 20.5214 11.6269C20.3983 10.7356 19.8309 9.66116 19.7807 9.05333C20.076 8.97343 21.0993 8.1675 21.4163 7.92817C22.9822 6.74572 22.6588 4.66357 21.1441 3.91091C20.3763 3.52928 18.9432 3.67595 18.0068 3.67595C17.6386 2.07941 17.0762 0.00126648 15.1692 0.00126648C14.2866 0.00126648 13.4773 0.589022 13.1553 1.19247C12.982 1.51718 12.3629 3.2936 12.3311 3.67595L12.3319 3.67485Z" fill="#595959"/>
<path fill-rule="evenodd" clip-rule="evenodd" d="M43.1925 3.67464C42.2562 3.67464 40.8231 3.52797 40.0553 3.90959C38.5117 4.67685 38.2659 6.77032 39.7322 7.88892C40.0289 8.11549 41.1364 8.97614 41.4191 9.05239C41.3169 10.2954 39.6578 12.143 41.6198 13.7793C42.8005 14.7643 44.047 14.0128 45.0426 13.2524C45.3855 12.9905 45.6801 12.7851 46.0306 12.5479C46.5305 12.8154 46.9875 13.2046 47.4489 13.5345C47.7037 13.7169 47.8153 13.8482 48.1437 13.9974C49.0368 14.4031 50.0609 14.2565 50.7533 13.5567C51.0543 13.2525 51.4402 12.5063 51.4402 11.9208C51.4402 11.3815 50.833 9.54458 50.6421 9.14216C51.7272 8.40773 53.3025 7.42119 53.3025 6.18438C53.3025 3.22442 50.6843 3.67464 48.8686 3.67464C48.8372 3.29119 48.2307 1.56075 48.0748 1.25064C47.2792 -0.331315 44.9375 -0.44515 44.0253 1.19992C43.8308 1.55089 43.2947 3.23428 43.1929 3.67501L43.1925 3.67464Z" fill="#595959"/>
<path fill-rule="evenodd" clip-rule="evenodd" d="M27.7622 3.67467C26.7659 3.67467 25.4512 3.56595 24.7321 3.83885C23.5535 4.28541 23.3282 5.20446 23.3282 6.2738C23.3282 7.0531 23.8755 7.57591 24.3397 7.94039C26.1933 9.39537 26.1161 8.71532 25.5338 10.4749C25.1837 11.5337 24.8725 12.533 25.8778 13.556C26.8907 14.5863 28.1712 14.3134 29.1812 13.5341L30.5998 12.548C31.6748 13.2755 32.3878 14.0734 33.4739 14.2204C34.6709 14.3824 35.9207 13.2368 35.9207 12.0996C35.9207 11.2893 35.8875 11.2345 35.6005 10.3618C35.4738 9.97693 35.2427 9.43368 35.2113 9.05242C35.5167 8.96997 36.6347 8.09035 36.8982 7.88896C38.4277 6.72219 38.0219 4.62873 36.5751 3.90962C35.8073 3.528 34.3742 3.67467 33.4378 3.67467C32.992 2.73557 32.857 0 30.6002 0C29.6768 0 28.9267 0.574254 28.5751 1.17989C28.426 1.43674 27.7903 3.33865 27.7625 3.67467H27.7622Z" fill="#595959"/>
<path fill-rule="evenodd" clip-rule="evenodd" d="M14.6373 38.0923L14.7261 39.9745H26.698C27.0723 39.9745 27.0528 39.1562 27.0528 38.6301C27.0528 35.5088 24.9826 33.1542 22.2485 32.4613C20.9335 32.1282 19.6112 32.268 18.4236 32.7769C17.7143 33.0808 17.1093 33.4803 16.61 33.9911C15.5805 35.0437 14.6376 36.4264 14.6376 38.0927L14.6373 38.0923Z" fill="#595959"/>
<path fill-rule="evenodd" clip-rule="evenodd" d="M18.2731 26.799C18.2731 27.7261 18.3482 28.2471 19.0781 28.9432C20.1109 29.9283 21.6111 29.8867 22.6439 28.8866C25.052 26.5557 21.4873 22.8876 19.0467 25.1612C18.7391 25.4476 18.2728 26.2339 18.2728 26.799H18.2731Z" fill="#595959"/>
<path d="M46.7414 20.9371H34.51C33.7635 20.9371 33.1584 21.5487 33.1584 22.3031C33.1584 23.0575 33.7635 23.669 34.51 23.669H46.7414C47.4878 23.669 48.0929 23.0575 48.0929 22.3031C48.0929 21.5487 47.4878 20.9371 46.7414 20.9371Z" fill="white"/>
<path d="M41.8523 25.5815H34.0237C33.5458 25.5815 33.1584 26.1931 33.1584 26.9475C33.1584 27.7019 33.5458 28.3135 34.0237 28.3135H41.8523C42.3302 28.3135 42.7176 27.7019 42.7176 26.9475C42.7176 26.1931 42.3302 25.5815 41.8523 25.5815Z" fill="white"/>
</svg>
