<svg width="60" height="40" viewBox="0 0 60 40" fill="none" xmlns="http://www.w3.org/2000/svg">
<path fill-rule="evenodd" clip-rule="evenodd" d="M0 13.3676C0.254373 13.7301 3.14451 14.5635 3.6177 14.7292C4.86784 15.1655 6.13023 15.5618 7.42698 16.0129L30.0677 23.6925C30.4596 23.7671 33.1652 22.7259 33.7352 22.528L58.1396 14.1173C58.4868 13.9964 58.7313 13.8954 59.1129 13.7874C59.6042 13.6484 59.7602 13.709 60 13.3676C59.3273 13.2039 58.832 12.9391 58.1925 12.6851L30.2344 1.5L24.6106 3.70328C23.9975 3.95771 23.3494 4.18287 22.7344 4.43606C17.974 6.39688 12.2387 8.4542 7.60037 10.4134C6.3688 10.9334 5.07719 11.4241 3.85351 11.8847C2.85853 12.2591 0.845671 13.1614 0 13.3672V13.3676Z" fill="#595959"/>
<path fill-rule="evenodd" clip-rule="evenodd" d="M29.9415 29.9355C29.4229 29.9355 13.1537 23.8423 12.1291 23.8184V32.505C13.2398 32.505 16.2911 32.9454 17.354 33.1672C21.2249 33.9751 22.9862 34.9198 26.1575 36.333C27.6285 36.9883 28.7317 37.7668 30.0584 38.5C31.1731 37.7206 33.3787 36.5107 34.6273 35.9293C36.0326 35.2749 37.107 34.7491 38.64 34.246L41.9433 33.2901C44.135 32.7817 45.5317 32.6274 47.8709 32.6274V23.6963L34.4385 28.3916C33.8416 28.5994 30.1911 29.9359 29.9411 29.9359L29.9415 29.9355Z" fill="#595959"/>
</svg>
