<svg width="40" height="31" viewBox="0 0 40 31" fill="none" xmlns="http://www.w3.org/2000/svg">
<path fill-rule="evenodd" clip-rule="evenodd" d="M13.4914 6.93921C13.659 7.02783 13.8428 7.09719 14.0123 7.20814C16.0165 8.52008 14.8075 9.58001 14.1585 8.6416C13.2699 7.3567 11.6446 7.44579 10.7403 8.32026C10.088 8.95143 9.96717 9.34353 9.96717 10.2204C9.96717 10.4575 10.0137 10.6717 10.0887 10.828C10.8322 10.828 11.1223 10.8433 11.6498 11.0899C13.2927 11.8576 12.544 12.8931 11.9237 12.4596C11.7591 12.3447 11.7434 12.2542 11.4608 12.0687C10.9263 11.7178 10.3532 11.6672 9.7227 11.9199C9.19026 12.1334 8.75726 12.4587 8.44673 12.8922C7.75021 13.864 7.74175 15.2069 8.411 16.2124C8.77536 16.7596 9.05885 16.9199 9.60281 17.2079C9.90017 17.0088 10.6106 16.0619 11.5913 15.9114C11.859 15.8705 12.2154 15.9634 12.2154 16.3571C12.2154 16.7723 11.8644 16.7974 11.5553 16.9121C11.2502 17.0252 10.9956 17.1808 10.7474 17.3802C9.34164 18.5081 9.94131 21.1178 11.8139 21.4373C12.0751 21.4817 12.1327 21.4237 12.3369 21.5217C12.4961 19.6103 14.2206 19.1865 14.2206 20.1242C14.2206 20.5943 13.3092 20.6432 13.3092 21.3393V21.7039C13.3092 22.1084 13.796 22.9798 14.099 22.9798C14.8691 22.9798 16.1928 23.1134 16.486 22.8151C16.7314 22.5654 17.0153 22.0346 17.0153 21.6432V7.60777C17.0153 7.11317 16.7737 6.65972 16.5168 6.4049C15.344 5.24224 13.5603 6.1094 13.4914 6.93944V6.93921Z" fill="#404040"/>
<path fill-rule="evenodd" clip-rule="evenodd" d="M20.5395 7.54691C20.5395 7.42373 20.6952 6.95217 21.2455 7.13953C23.406 7.8753 25.2179 10.2227 25.2179 12.4684C25.2179 13.0838 25.2873 13.3191 24.6712 13.3191C24.2208 13.3191 24.3066 12.5704 24.2976 12.4773C24.1679 11.1235 23.6289 10.0652 22.7123 9.14115C21.5513 7.97073 20.5395 8.15504 20.5395 7.54691ZM19.0811 6.27093V22.9796C22.4171 22.9796 21.764 23.1738 21.9406 22.3151C22.0781 21.6458 22.3442 20.8438 22.6907 20.2702C23.4718 18.9775 23.626 19.0664 24.414 18.2871C27.0666 15.6644 27.3689 11.8863 25.4354 8.72672C24.2701 6.82264 21.8921 5.35931 19.6888 5.35931C19.2372 5.35931 19.0811 5.80925 19.0811 6.2707V6.27093Z" fill="#404040"/>
<path fill-rule="evenodd" clip-rule="evenodd" d="M13.9166 28.8731H21.8762C24.2883 28.8731 23.6719 26.7466 23.2128 26.7466H12.6407C12.2192 26.7466 11.6588 28.8731 13.9166 28.8731Z" fill="#404040"/>
<path fill-rule="evenodd" clip-rule="evenodd" d="M12.5193 25.8961H23.3952C23.4965 25.516 23.6383 25.717 23.6383 24.9848C23.6383 24.3844 23.0842 23.8303 22.4838 23.8303H13.3701C12.7112 23.8303 12.1811 24.5191 12.2648 25.2384C12.3075 25.6054 12.3872 25.6465 12.5193 25.8961Z" fill="#404040"/>
<path fill-rule="evenodd" clip-rule="evenodd" d="M16.0433 30.9998H19.9319C20.328 30.9998 20.6792 30.7703 20.891 30.5614C21.3534 30.1051 21.2039 30.0515 21.3903 29.6631H14.5245C14.5668 30.1721 14.9994 30.6876 15.434 30.8804C15.5955 30.9521 15.8019 31 16.0436 31L16.0433 30.9998Z" fill="#404040"/>
<path fill-rule="evenodd" clip-rule="evenodd" d="M18.595 0.802425C18.595 1.39363 18.5184 3.52878 18.6949 3.92276C18.9183 4.42134 19.6279 4.19874 19.6279 3.65807V0.498461C19.6279 -0.0875746 18.595 -0.345668 18.595 0.802425Z" fill="#404040"/>
<path fill-rule="evenodd" clip-rule="evenodd" d="M27.8912 12.9542C27.8912 13.2481 28.0833 13.4404 28.3773 13.4404H31.5367C32.1674 13.4404 32.4448 12.4075 31.2936 12.4075H28.5595C28.1803 12.4075 27.8912 12.5812 27.8912 12.9542Z" fill="#404040"/>
<path fill-rule="evenodd" clip-rule="evenodd" d="M25.1571 19.4554C25.1571 19.8019 26.0567 20.5678 26.4178 20.9288C26.6503 21.1613 27.631 22.2504 27.8912 22.2504C28.162 22.2504 28.438 22.0043 28.438 21.7643C28.438 21.4178 27.5381 20.6519 27.1773 20.2909C26.9448 20.0584 25.9638 18.9693 25.7038 18.9693C25.433 18.9693 25.1571 19.2154 25.1571 19.4554Z" fill="#404040"/>
<path fill-rule="evenodd" clip-rule="evenodd" d="M25.1571 6.39243C25.1571 6.65877 25.3552 6.87856 25.7038 6.87856C26.0494 6.87856 26.7873 6.00762 27.147 5.64819C27.3792 5.41594 28.4382 4.46437 28.4382 4.20509C28.4382 3.78196 28.1869 3.65829 27.8306 3.65829C27.6528 3.65829 26.6392 4.75845 26.4483 4.94956C26.2107 5.18722 26.0177 5.38021 25.78 5.61787C25.6183 5.7796 25.1573 6.14819 25.1573 6.39266L25.1571 6.39243Z" fill="#404040"/>
</svg>
