<svg width="40" height="31" viewBox="0 0 40 31" fill="none" xmlns="http://www.w3.org/2000/svg">
<path fill-rule="evenodd" clip-rule="evenodd" d="M13.3599 4.12826H10.0785C10.0785 3.32191 10.0908 2.18087 8.82824 2.18087H4.60959C3.44621 2.18087 3.35934 3.20281 3.35934 4.12826C1.85318 4.12826 1.05904 4.47141 0.324372 5.69764C0.190282 5.92123 0 6.44044 0 6.77654V28.274C0 29.6678 1.33619 31 2.73422 31H37.2658C38.6638 31 40 29.6678 40 28.274V6.77654C40 5.8591 39.2422 4.86919 38.3617 4.43754C37.3909 3.9621 35.7667 4.12826 34.6095 4.12826C31.9012 4.12826 29.193 4.12826 26.4843 4.12826L24.5168 0.793197C24.3077 0.442037 24.0447 0 23.5154 0H16.4841C15.7599 0 15.283 1.12928 14.8094 1.91351L13.7943 3.62742C13.672 3.83501 13.5847 4.12826 13.359 4.12826H13.3599ZM31.6198 7.74625H35.2521C35.9117 7.74625 36.4513 8.28427 36.4513 8.9414C36.4513 9.59853 35.9117 10.1366 35.2521 10.1366H31.6198C30.9602 10.1366 30.4206 9.59853 30.4206 8.9414C30.4206 8.28427 30.9602 7.74625 31.6198 7.74625ZM20.0007 9.30576C24.5886 9.30576 28.3072 13.0136 28.3072 17.5872C28.3072 22.1612 24.5881 25.8691 20.0007 25.8691C15.4128 25.8691 11.6937 22.1612 11.6937 17.5872C11.6937 13.0132 15.4128 9.30576 20.0007 9.30576ZM20.0007 11.7488C23.2349 11.7488 25.8572 14.3627 25.8572 17.5876C25.8572 20.8121 23.2354 23.4265 20.0007 23.4265C16.766 23.4265 14.1442 20.8121 14.1442 17.5876C14.1442 14.3632 16.766 11.7488 20.0007 11.7488Z" fill="#404040"/>
</svg>
