<svg width="40" height="31" viewBox="0 0 40 31" fill="none" xmlns="http://www.w3.org/2000/svg">
<path fill-rule="evenodd" clip-rule="evenodd" d="M15.3514 28.9341H7.92628C7.45908 28.9341 7.19052 28.8774 6.93816 28.6306C6.67992 28.3779 6.57029 28.191 6.57029 27.7072V19.6365H33.4297V27.7072C33.4297 28.5728 32.9015 28.9341 32.0737 28.9341H24.4551C23.705 28.9341 23.5075 28.617 23.2316 28.1564C22.3991 26.7677 21.7943 25.1888 20.0002 25.1888C19.4186 25.1888 18.802 25.4559 18.4584 25.7134C17.8044 26.2034 17.1775 27.4398 16.7364 28.1877C16.4168 28.7292 16.1776 28.9341 15.3518 28.9341H15.3514ZM6.57029 16.731C6.57029 15.9394 7.00549 15.5042 7.79715 15.5042H32.2032C33.5864 15.5042 33.4301 16.6472 33.4301 17.5705H6.57067V16.731H6.57029ZM4.50433 16.2789V28.159C4.50433 28.5166 4.67023 29.0294 4.80524 29.2784C4.87403 29.4057 4.99949 29.6147 5.07601 29.718C5.63959 30.4803 6.48127 31 7.47452 31H15.8679C16.458 31 17.0035 30.7837 17.3545 30.5498C18.3109 29.9119 18.7906 28.8745 19.4307 27.7834C20.0907 26.6588 20.5457 27.7448 20.9074 28.3492C21.1439 28.7443 21.3727 29.153 21.6391 29.5543C22.1747 30.3629 23.0587 30.9997 24.1321 30.9997H32.5255C34.0871 30.9997 35.4957 29.5915 35.4957 28.0295V16.408C35.4957 15.9824 35.3728 15.5321 35.2382 15.2448C35.1764 15.1135 35.0583 14.9211 34.9766 14.7964C34.9181 14.707 34.7232 14.4539 34.6382 14.3601C34.2199 13.9003 33.3223 13.4379 32.6546 13.4379H7.34503C5.96809 13.4379 4.50433 14.9024 4.50433 16.2786V16.2789Z" fill="#404040"/>
<path fill-rule="evenodd" clip-rule="evenodd" d="M7.28031 11.3723H9.41102C9.45406 10.8606 10.5639 6.5675 10.5731 6.14224L11.5789 6.81544C12.3459 7.37387 13.9539 8.66033 14.8989 8.66033C15.7314 8.66033 16.5411 8.40463 17.0407 7.76785C17.3651 7.35473 17.9979 6.28755 17.9979 5.62575C17.9979 5.08608 16.9509 4.42134 16.43 4.02993L11.8548 0.599161C11.2607 0.1533 11.2073 0.00869751 10.5728 0.00869751C9.62034 0.00869751 9.53241 1.53538 9.32015 2.37156C9.10016 3.23753 7.27957 11.018 7.27957 11.3723H7.28031Z" fill="#404040"/>
<path fill-rule="evenodd" clip-rule="evenodd" d="M22.0014 5.62573C22.0014 6.2158 22.0989 6.20696 22.4108 6.83087C23.0031 8.01616 23.5516 8.66032 25.1011 8.66032C26.0369 8.66032 26.7882 7.94113 27.3992 7.53684C28.104 7.07074 28.7397 6.60244 29.4265 6.14223C29.4354 6.53401 29.6108 7.04498 29.6903 7.42831L30.589 11.3723H32.7197C32.7197 11.0636 32.1539 8.7258 32.0748 8.40133C31.8376 7.43273 31.5797 6.36588 31.3799 5.41604C31.2718 4.90212 31.1592 4.43418 31.0404 3.94786C30.9153 3.43688 30.8277 2.95536 30.6927 2.42342C30.5276 1.77412 30.3992 0.700662 30.0696 0.33463C29.2544 -0.571071 28.1791 0.574123 27.259 1.26315C26.9294 1.51036 26.6576 1.71487 26.3368 1.95546L22.6934 4.70347C22.4314 4.89807 22.0018 5.21444 22.0018 5.62609L22.0014 5.62573Z" fill="#404040"/>
<path fill-rule="evenodd" clip-rule="evenodd" d="M25.6816 21.5737C25.6816 22.8558 26.6443 22.7359 27.3602 22.7359C27.8288 22.7359 28.2644 22.2881 28.2644 21.5737C28.2644 21.1709 27.7634 20.6699 27.3602 20.6699H26.5854C26.1822 20.6699 25.6816 21.1709 25.6816 21.5737Z" fill="#404040"/>
<path fill-rule="evenodd" clip-rule="evenodd" d="M29.8139 21.5737C29.8139 22.8558 30.7766 22.7359 31.4929 22.7359C31.9608 22.7359 32.3967 22.2881 32.3967 21.5737C32.3967 21.1709 31.8957 20.6699 31.4929 20.6699H30.7178C30.3149 20.6699 29.8139 21.1709 29.8139 21.5737Z" fill="#404040"/>
</svg>
