<svg width="60" height="40" viewBox="0 0 60 40" fill="none" xmlns="http://www.w3.org/2000/svg">
<path fill-rule="evenodd" clip-rule="evenodd" d="M33.6559 17.5286C33.6559 16.421 33.7216 16.0594 34.362 15.5825C36.6707 13.864 45.6325 13.4874 48.3771 14.2941C52.3831 15.4717 51.2956 22.3701 49.3037 24.4597L48.7128 25.0014C47.1222 26.2287 44.513 26.3698 42.3748 26.3698C41.0888 26.3698 39.7552 26.012 38.7522 25.6701C37.6745 25.3025 36.7775 24.6658 36.0681 23.9239C35.0591 22.8692 33.6561 19.6114 33.6561 17.5284L33.6559 17.5286ZM53.9998 15.1105V16.578C53.9998 17.6206 53.3539 17.561 53.1145 18.5322C52.9336 19.2659 52.8064 20.1211 52.6873 20.8561C52.457 22.2773 52.3272 23.0075 51.8815 24.3173C51.3382 25.9148 49.7287 26.9455 48.076 27.3981C45.0974 28.2136 40.8701 28.1942 37.98 27.2142C34.8897 26.1661 34.0668 24.7231 32.7795 22.0303C32.6178 21.6924 32.5223 21.3712 32.3832 21.0063C31.5066 18.7066 32.014 17.4905 30.0084 17.5467C28.5578 17.5875 28.44 18.0251 28.2554 18.8018C27.8606 20.4619 27.3994 21.6511 26.6876 23.1062C26.3132 23.8717 26.048 24.2646 25.5547 24.9044C22.887 28.3639 15.8599 28.4755 11.9238 27.3981C7.08641 26.0737 7.87191 22.3282 6.86725 18.4557C6.65897 17.653 6 17.5795 6 16.5782V14.5816C6 13.6645 6.66528 13.1217 7.32251 12.8807C9.29857 12.1563 15.3661 11.8763 18.0985 12.1049C18.4286 12.1325 18.7938 12.0914 19.1252 12.1093C19.5432 12.132 19.5728 12.1986 20.0618 12.2054C25.956 12.2879 27.304 14.8402 29.9999 14.8402C31.604 14.8402 33.4615 13.6347 34.6727 13.1407C36.1687 12.5304 38.265 12.2515 40.0319 12.2056L41.9862 12.0959C44.1997 11.8441 48.3338 12.1373 50.2338 12.4113C53.5584 12.8909 53.9611 13.1956 54 15.1105H53.9998ZM17.6248 26.37C14.6347 26.37 11.3627 26.1328 9.90537 23.3602C9.79297 23.1464 9.7747 23.046 9.68187 22.8262C9.37314 22.0954 9.26205 21.7678 9.11877 20.9256C8.66547 18.2606 8.8668 15.1513 11.551 14.3166C14.3486 13.4467 22.4546 13.9595 25.0333 15.2448C25.9993 15.7263 26.3437 16.044 26.3437 17.4336C26.3437 19.2401 25.2216 22.5286 23.978 23.8761C23.3119 24.5979 22.3466 25.2869 21.3182 25.6469C20.309 26.0001 18.9245 26.37 17.625 26.37H17.6248ZM52.0311 15.247C52.4164 15.1559 52.5994 14.993 52.9686 14.9617V15.7223C52.6614 15.5729 52.225 15.5155 52.0311 15.247ZM7.03097 15.7223V14.9617C7.40013 14.9928 7.5832 15.1559 7.96845 15.247C7.7743 15.5155 7.33817 15.5729 7.03097 15.7223Z" fill="#595959"/>
</svg>
