<svg width="40" height="31" viewBox="0 0 40 31" fill="none" xmlns="http://www.w3.org/2000/svg">
<path fill-rule="evenodd" clip-rule="evenodd" d="M3.04785 14.8943V15.5604C3.04785 16.2889 3.71012 16.4139 3.71012 16.6503C3.71012 19.0823 3.76276 18.0032 3.28897 18.7475C2.78322 19.5426 3.18228 20.2405 3.50331 21.1989C3.68474 21.7408 3.88169 22.2368 4.08286 22.7881C4.47628 23.8668 4.87955 24.8016 5.32796 25.8274C5.62079 26.497 7.29788 30.2754 7.93618 30.7082C8.18764 30.8788 8.50538 30.9794 8.83158 31H9.0727C9.81676 30.954 10.5312 30.474 10.5312 29.4258C10.5312 29.1366 9.38528 26.9642 9.16248 26.5602C8.42265 25.2193 6.83395 21.2045 6.41186 19.8116C6.19047 19.0819 5.89576 18.1789 4.90305 18.1037V16.5295C5.80034 15.9799 5.49764 15.4921 5.70305 13.8096C5.99635 11.405 7.50045 8.29186 9.35566 6.6145C10.8391 5.27364 11.7726 4.48158 13.7533 3.61217C14.5363 3.26836 15.6499 2.87471 16.5848 2.68948C20.4306 1.92794 24.038 2.33535 27.4462 4.21211L29.1186 5.28652C29.8213 5.82974 29.9637 5.99821 30.6124 6.58441C32.5371 8.32365 33.9698 11.298 34.2927 13.7545L34.4365 15.3791C34.4351 16.0611 34.6551 16.2575 35.0988 16.5291V18.1033C34.7651 18.1287 34.5324 18.261 34.3219 18.4222C33.8203 18.8068 33.5209 19.9496 33.3249 20.5985C32.9818 21.7331 31.4932 25.374 30.8389 26.5597C30.6161 26.9637 29.4702 29.1362 29.4702 29.4254C29.4702 29.9446 29.5647 30.2204 29.897 30.5488C30.1574 30.8062 30.5217 30.9635 30.9033 30.9996H31.2394C31.7418 30.9515 32.2311 30.6855 32.5165 30.1526C32.7637 29.691 33.0152 29.2604 33.2671 28.7803C34.8093 25.8425 35.598 23.5884 36.7129 20.5487C37.4208 18.6186 36.2899 18.6285 36.2899 18.2245V16.6503C36.2899 16.4139 36.9521 16.2889 36.9521 15.5604C36.9521 11.3161 35.1947 7.44653 31.9693 4.49578C30.625 3.26623 28.8549 2.14412 27.1299 1.41266C25.1191 0.560015 23.0011 0.0954376 20.8794 3.05176e-05H19.2263C15.8477 0.152166 12.5303 1.23432 9.69831 3.17427C8.72958 3.83782 7.86942 4.61654 7.0713 5.43437C6.91572 5.59425 6.77801 5.77474 6.6323 5.94149C5.81257 6.87708 5.26827 7.75466 4.65911 8.86C3.87228 10.2872 3.04785 12.7807 3.04785 14.8943Z" fill="#404040"/>
<path fill-rule="evenodd" clip-rule="evenodd" d="M24.4366 27.3062C24.4366 27.9797 24.9358 28.3996 25.4984 28.697C26.5837 29.2711 28.1372 29.8921 28.8746 28.5788C29.9609 26.6444 31.3762 23.5845 32.1094 21.5466C32.3534 20.8689 33.1115 19.0596 33.1115 18.4063C33.1115 16.9073 30.0878 16.5381 29.614 16.6585C28.7825 16.8699 28.6439 17.35 28.343 18.0423L26.783 21.7623C26.4906 22.4263 24.4366 27.0269 24.4366 27.3062Z" fill="#404040"/>
<path fill-rule="evenodd" clip-rule="evenodd" d="M6.88892 18.4058C6.88892 19.7372 9.66399 25.6696 10.3794 27.2026C10.5942 27.6629 11.1314 28.7837 11.5686 29.0824C11.9479 29.3415 12.1011 29.3648 12.5838 29.3648C13.1977 29.3648 14.596 28.681 14.9791 28.4064C15.93 27.7261 15.4534 26.873 15.1469 26.1729C14.1053 23.7942 12.6825 20.6716 11.7472 18.2619C11.169 16.7736 10.7474 16.2549 8.71639 16.8681C7.93426 17.1045 6.88846 17.4475 6.88846 18.4054L6.88892 18.4058Z" fill="#404040"/>
</svg>
