<svg width="41" height="40" viewBox="0 0 41 40" fill="none" xmlns="http://www.w3.org/2000/svg">
<path fill-rule="evenodd" clip-rule="evenodd" d="M2.54106 3.74966V36.2497C2.54106 36.3146 2.57095 36.4058 2.61895 36.5088C2.70956 36.7037 2.84691 36.8881 2.99983 37.041C3.11651 37.1577 3.21031 37.248 3.25609 37.2836C3.2793 37.3014 3.31268 37.3215 3.36132 37.344C3.46243 37.3911 3.6074 37.4483 3.7422 37.4836C3.77845 37.4931 3.78226 37.4998 3.79148 37.4998H36.2915C36.3008 37.4998 36.3046 37.4931 36.3408 37.4836C36.4756 37.4483 36.6206 37.3911 36.7217 37.344C36.9163 37.2534 37.1315 37.0433 37.3127 36.7746C37.4516 36.5686 37.5416 36.3766 37.5416 36.2497V3.74966C37.5416 3.52361 37.3579 3.22699 37.086 2.95516C36.8142 2.68333 36.5173 2.49956 36.2912 2.49956H3.79117C3.56512 2.49956 3.26817 2.68364 2.99634 2.95516C2.72451 3.22699 2.54075 3.52393 2.54075 3.74966H2.54106ZM0.0415039 3.74966V36.2497C0.0415039 37.2159 0.586434 38.1627 1.23247 38.8087C1.55358 39.1298 1.8874 39.4141 2.30675 39.6096C2.64598 39.7679 3.30314 40 3.79148 40H36.2915C36.7799 40 37.4373 39.7679 37.7763 39.6096C38.9354 39.0691 40.0415 37.5869 40.0415 36.25V3.74998C40.0415 1.91807 38.1234 0 36.2915 0H3.79148C1.95956 0 0.0415039 1.91807 0.0415039 3.74998V3.74966Z" fill="#F79500"/>
<path fill-rule="evenodd" clip-rule="evenodd" d="M17.4635 15.2339L19.4947 21.562H15.5104C15.6261 21.066 15.8395 20.5408 16.0096 20.0299C16.4499 18.7057 17.1789 16.456 17.4635 15.2339ZM10.6667 28.2026C13.785 28.2026 13.3075 28.4468 13.6842 27.3137L14.7293 24.1401H20.2762C20.5776 24.7683 20.7413 25.517 21.0122 26.2165C21.9599 28.6646 20.9232 28.2026 24.4948 28.2026C24.8833 28.2026 24.6455 27.7832 24.4836 27.3547C22.97 23.344 21.3676 18.6723 19.8953 14.599C19.7821 14.2859 19.3418 12.7337 19.0261 12.7337C14.8796 12.7337 15.8347 12.4918 15.5978 13.6805L10.9239 27.1318C10.771 27.5175 10.6667 27.6853 10.6667 28.2026Z" fill="#F79500"/>
<path fill-rule="evenodd" clip-rule="evenodd" d="M26.3696 16.6401L26.3629 27.6624C26.3572 28.4086 26.2434 28.2025 29.0259 28.2025C29.4074 28.2025 29.2606 27.3956 29.2602 27.0307V16.6401C27.9704 16.5329 27.7052 16.5002 26.3696 16.6401Z" fill="#F79500"/>
<path fill-rule="evenodd" clip-rule="evenodd" d="M26.2134 13.2808C26.2134 15.9002 29.4166 15.3442 29.4166 13.6715V13.2029C29.4166 11.2947 26.2134 11.3475 26.2134 13.2811V13.2808Z" fill="#F79500"/>
</svg>
