<svg width="31" height="40" viewBox="0 0 31 40" fill="none" xmlns="http://www.w3.org/2000/svg">
<path fill-rule="evenodd" clip-rule="evenodd" d="M14.3234 26.6126H11.7269V18.418C14.857 18.418 18.8666 18.0036 18.8666 22.3937C18.8666 23.5199 18.3852 24.7976 17.5886 25.4969C16.8019 26.1884 15.7693 26.6126 14.323 26.6126H14.3234ZM24.2216 22.8804L25.0533 23.6714C25.2771 23.9228 25.5154 24.3261 25.7155 24.632C26.1634 25.3165 26.5417 25.9577 26.9801 26.613H24.9518C24.8874 26.3359 24.168 25.237 23.9432 24.863C23.0737 23.4158 23.1069 23.4486 21.9498 23.4486V26.613H20.2458V18.4184C22.3937 18.4184 26.0067 17.9826 26.0067 20.5278C26.0067 21.7381 25.2765 22.635 24.2216 22.8808V22.8804ZM5.7229 22.3126V22.7993C5.7229 24.0763 6.71797 25.2334 7.99469 25.2334C9.78044 25.2334 9.11991 25.076 10.1853 24.8275V26.3691C9.3506 26.4385 10.0167 26.6935 7.34565 26.6935C6.88985 26.6935 6.32921 26.5019 5.99138 26.3438C4.78927 25.7822 3.93813 24.4506 3.93813 23.0424C3.93813 21.5791 4.0732 20.5988 5.13335 19.5317C6.23786 18.42 7.8777 18.1278 9.45806 18.4147C9.78439 18.4739 9.88002 18.5544 10.1853 18.58V20.2025C9.52872 20.0497 9.7995 19.7969 8.15702 19.7969C6.81853 19.7969 5.7229 20.9757 5.7229 22.3122V22.3126ZM0.124756 2.10997V37.8907C0.124756 39.0922 0.803032 40.0002 1.99069 40.0002H29.0087C29.894 40.0002 30.7126 39.0988 30.7126 38.2154V12.6579C30.7126 12.2642 29.9472 12.4144 29.171 12.4144H20.0027C19.2173 12.4163 19.0086 12.4627 18.5225 12.1097C18.5087 12.0995 18.489 12.0861 18.4756 12.0755C18.1791 11.8472 17.8124 11.3322 17.8124 10.9536V0.000518799H1.82868C0.747834 0.000518799 0.124756 0.993957 0.124756 2.10997Z" fill="#0AC87E"/>
<path fill-rule="evenodd" clip-rule="evenodd" d="M30.6314 11.6025C30.5043 11.1269 29.5555 10.4914 29.1904 10.1223L26.2298 7.24127C25.71 6.72139 25.2463 6.26328 24.7293 5.73978C24.4451 5.45223 24.2324 5.32867 23.9571 5.05164L21.7638 2.86365C21.4362 2.5899 21.2968 2.47061 20.9968 2.17025C20.3862 1.559 19.2991 0.397966 18.7046 0V8.76281C18.7046 10.0448 18.5719 10.5141 19.2896 11.1799C19.9061 11.7517 20.6698 11.6025 21.7878 11.6025H30.6314Z" fill="#0AC87E"/>
<path fill-rule="evenodd" clip-rule="evenodd" d="M13.4308 25.2332C14.8393 25.2332 16.2941 25.225 16.8725 23.5635C16.9661 23.2947 17.0946 22.6466 17.0634 22.3361C16.8465 20.1635 15.5583 19.7971 13.4308 19.7971V25.2332Z" fill="#0AC87E"/>
<path fill-rule="evenodd" clip-rule="evenodd" d="M21.9498 22.15H22.8424C23.5992 22.15 24.2216 21.6219 24.2216 20.8519C24.2216 20.0547 23.6413 19.7162 22.8424 19.7162H21.9498V22.1503V22.15Z" fill="#0AC87E"/>
</svg>
