<svg width="27" height="41" viewBox="0 0 27 41" fill="none" xmlns="http://www.w3.org/2000/svg">
<path fill-rule="evenodd" clip-rule="evenodd" d="M5.73843 14.1941L13.3131 14.1805L13.2995 0.846617C8.46154 0.846617 3.0734 -0.188187 0.72746 4.51535C-1.31469 8.60985 1.21254 13.2514 5.30001 14.0719L5.67208 14.1669C5.6874 14.172 5.7185 14.1807 5.73867 14.1939L5.73843 14.1941Z" fill="#EA4C1D"/>
<path fill-rule="evenodd" clip-rule="evenodd" d="M13.3131 14.1808L18.8986 14.1968L20.8586 14.1973C21.07 14.0575 22.3994 13.991 23.7134 13.0349C24.1961 12.684 24.3944 12.4737 24.8024 12.0706C25.2217 11.6562 25.3704 11.4188 25.6832 10.8982C27.8809 7.24138 26.0521 2.1128 21.2545 1.01092C19.6994 0.653666 15.3557 0.846872 13.2995 0.846872L13.3131 14.1808Z" fill="#F76E5E"/>
<path fill-rule="evenodd" clip-rule="evenodd" d="M5.73844 27.4426L13.2983 27.4468L13.298 21.8467L13.2985 19.7934L13.3129 14.1805L5.7382 14.1941C3.94369 14.6065 3.42361 14.8495 2.15064 15.9259C1.59362 16.3968 0.821277 17.4859 0.523326 18.2186C-0.479889 20.6855 -0.0154638 23.4084 1.69958 25.2321C1.78464 25.3227 1.79509 25.3414 1.87626 25.4287C3.55484 27.2341 5.02175 27.117 5.7382 27.4426H5.73844Z" fill="#9D57F8"/>
<path fill-rule="evenodd" clip-rule="evenodd" d="M13.2983 27.4468L5.7385 27.4427C5.50033 27.6006 5.86147 27.4541 5.2206 27.5824C2.65181 28.0971 0.313894 30.5915 0.0572576 33.1521C-0.268884 36.4043 1.3594 39.1483 4.18969 40.289C5.5956 40.8558 7.48853 40.925 8.94134 40.3559C10.9927 39.5522 12.4859 37.9817 13.0745 35.9026C13.4675 34.5145 13.2986 29.129 13.2986 27.4468H13.2983Z" fill="#0AC87E"/>
<path fill-rule="evenodd" clip-rule="evenodd" d="M13.2985 19.7934L13.298 21.8468C13.3106 21.8667 13.3223 21.8774 13.3262 21.9121C13.331 21.9573 13.3694 22.023 13.377 22.0482C13.385 22.0747 13.4273 22.2448 13.4336 22.2716L13.888 23.5902C14.1921 24.1956 14.3765 24.5397 14.7768 25.0348C18.0474 29.0807 24.8155 27.9664 26.3558 22.5844C26.9016 20.6773 26.4674 18.4407 25.3268 16.9114C24.84 16.2589 24.7129 16.1633 24.146 15.6656C23.4349 15.0413 22.7291 14.7081 21.8263 14.4388C21.5125 14.3453 21.0863 14.3013 20.8583 14.1973L18.8983 14.1968L18.3964 14.3448C17.1295 14.6381 16.1241 15.2445 15.2349 16.1301C14.716 16.6467 14.379 17.0655 14.0443 17.7394C13.8791 18.0721 13.7459 18.2983 13.6107 18.7059C13.531 18.9467 13.5252 18.9657 13.4664 19.2148C13.4467 19.2986 13.4258 19.4209 13.3981 19.5198L13.2987 19.7934H13.2985Z" fill="#18B6F5"/>
</svg>
