<svg width="41" height="41" viewBox="0 0 41 41" fill="none" xmlns="http://www.w3.org/2000/svg">
<path fill-rule="evenodd" clip-rule="evenodd" d="M20.4156 23.4524C20.4156 23.1534 20.4458 23.1575 20.4597 22.9469L20.4896 22.4273C20.4937 22.3404 20.5148 22.3505 20.5368 22.2816C20.5676 22.1853 20.5507 22.0339 20.5784 21.9521C20.5985 21.892 20.6127 21.9064 20.63 21.8255C20.6923 21.5344 20.6901 21.7069 20.719 21.5435C20.7297 21.4822 20.7489 21.4479 20.7735 21.4051C20.809 21.3427 20.7958 21.2741 20.8418 21.2058C20.8707 21.1624 20.872 21.1143 20.901 21.0721C20.9167 21.0494 20.9161 21.0661 20.9393 21.0214C20.9529 20.9956 20.9523 20.9795 20.9639 20.9569L21.0709 20.7819C21.1046 20.7347 21.1052 20.6963 21.137 20.6548C21.1543 20.6324 21.1515 20.644 21.1773 20.606L21.2572 20.5075C21.2975 20.4533 21.222 20.5606 21.2742 20.4798L21.4077 20.3312C21.4114 20.3268 21.425 20.3073 21.4265 20.3054L21.9273 19.8708C21.9758 19.8443 21.9814 19.8213 22.0356 19.8009C22.0796 19.7842 22.068 19.793 22.1035 19.765C22.1419 19.7348 22.1079 19.7467 22.157 19.7294C22.1825 19.7206 22.2042 19.7219 22.2291 19.7125C22.3097 19.6826 22.2477 19.6681 22.3559 19.6464C22.5501 19.6073 22.4293 19.5903 22.6568 19.5614C22.784 19.545 22.7969 19.5006 22.9549 19.4884C23.1157 19.4761 23.6665 19.4679 23.8333 19.4994C23.9419 19.5198 23.8758 19.534 23.9696 19.556C24.0215 19.5683 24.075 19.5658 24.1257 19.5784C24.1836 19.5925 24.1921 19.6177 24.2607 19.6363L24.3844 19.6907C24.4404 19.7313 24.4643 19.7112 24.52 19.748C24.5386 19.7603 24.5159 19.748 24.5449 19.7678L24.6403 19.8062C24.7108 19.8374 24.6422 19.7996 24.6897 19.8459C24.7479 19.9025 24.8326 19.934 24.8898 19.9872C24.91 20.0061 24.8895 19.991 24.9116 20.0102L25.2017 20.2843C25.2235 20.3067 25.2222 20.3133 25.2411 20.334C25.2641 20.3599 25.2574 20.3457 25.2845 20.3797L25.5841 20.8225C25.6065 20.8631 25.6118 20.9185 25.6402 20.9594C25.6685 21.0003 25.6704 21.0365 25.6924 21.0853C25.7484 21.209 25.7273 21.0799 25.7648 21.2952C25.7777 21.3698 25.8022 21.3733 25.823 21.4299C25.8482 21.4995 25.8425 21.6685 25.858 21.7661C25.8778 21.8879 25.9096 21.9672 25.9096 22.1006V24.61C25.9096 24.6956 25.8614 24.7535 25.8432 24.8555C25.8217 24.9747 25.8567 25.032 25.8048 25.129C25.7808 25.174 25.7727 25.1689 25.7626 25.2353L25.6697 25.5878C25.6452 25.6624 25.6247 25.6146 25.6014 25.7125C25.5756 25.8204 25.5879 25.748 25.5442 25.8185C25.5051 25.8815 25.5445 25.8714 25.4976 25.9353L25.3015 26.2141C25.2426 26.3054 24.9896 26.5673 24.9084 26.6227L24.8143 26.6919C24.7507 26.7438 24.5833 26.8546 24.5203 26.8732C24.4668 26.8889 24.453 26.9116 24.4162 26.932C24.3812 26.9512 24.34 26.9484 24.3048 26.9692C24.2503 27.0016 24.29 27.0079 24.1965 27.0246C23.9869 27.0614 24.0246 27.0882 23.9466 27.1011C23.8531 27.1165 23.7493 27.1196 23.6649 27.1313C23.5409 27.1486 23.4437 27.1785 23.3115 27.1785C23.2019 27.1785 23.1305 27.1313 23.0276 27.1209C22.9203 27.1105 22.7906 27.1174 22.6892 27.1029C22.6235 27.0935 22.6247 27.0664 22.57 27.0441C22.5158 27.0221 22.4765 27.0381 22.4227 27.0132C22.2987 26.956 22.4579 26.9988 22.2253 26.9434C22.1602 26.9279 22.18 26.9132 22.1208 26.8845L21.7057 26.6315C21.6434 26.5997 21.5927 26.5405 21.538 26.4876C21.5147 26.4653 21.5348 26.4886 21.5153 26.4656L21.452 26.3951C21.4014 26.3485 21.4347 26.3246 21.3513 26.3177C21.346 26.2538 21.3444 26.2749 21.3079 26.2425L20.8805 25.6007C20.8682 25.5658 20.8751 25.546 20.8541 25.5082C20.8273 25.4607 20.8229 25.4884 20.8062 25.4371C20.7968 25.4081 20.7977 25.3675 20.7876 25.3367C20.7647 25.2671 20.7363 25.2608 20.7171 25.1699C20.7011 25.0946 20.719 25.1384 20.6822 25.0862C20.6426 25.0295 20.6441 24.9795 20.6306 24.9001C20.6123 24.7919 20.5862 24.8152 20.5695 24.7236C20.5563 24.6512 20.5632 24.5753 20.5503 24.5052C20.5337 24.4155 20.4968 24.4085 20.4902 24.3276C20.4723 24.1036 20.4839 23.8823 20.4459 23.6595C20.4329 23.5849 20.416 23.5377 20.416 23.4518L20.4156 23.4524ZM25.9086 17.6469C25.8488 17.623 25.9036 17.6513 25.8724 17.6088L25.7749 17.4687C25.7566 17.4442 25.7544 17.4477 25.7396 17.4297L25.6169 17.2852C25.6147 17.283 25.6112 17.2802 25.609 17.2783C25.6024 17.2723 25.5885 17.2642 25.5829 17.2598L25.4633 17.1417C25.4088 17.0898 25.3484 17.042 25.2883 16.99C25.242 16.9497 25.2316 16.9626 25.1942 16.9359C25.1183 16.8818 25.068 16.8292 24.9858 16.788C24.9345 16.7619 24.966 16.765 24.9084 16.7316L24.6975 16.6309C24.6315 16.6057 24.661 16.5954 24.5949 16.5702C24.5021 16.5349 24.4741 16.4997 24.3724 16.4811C24.267 16.4619 24.3249 16.4666 24.2594 16.4308C24.2154 16.4068 24.183 16.4119 24.1301 16.3968C24.0158 16.3643 24.104 16.3489 23.8909 16.3241C23.8201 16.3159 23.8261 16.3001 23.7744 16.2772C23.691 16.24 23.585 16.2605 23.4994 16.2256C23.3389 16.1601 23.4106 16.19 23.2366 16.1765C23.1538 16.1702 23.0219 16.1654 22.9492 16.1371C22.8104 16.0833 22.2483 16.0868 22.062 16.1022C21.9594 16.1107 21.8401 16.094 21.7381 16.105C21.6135 16.1185 21.5361 16.1547 21.4823 16.1607C21.368 16.1736 21.2906 16.1661 21.1754 16.1805C21.0898 16.1912 21.0199 16.2372 20.9305 16.2473C20.7234 16.2712 20.7848 16.2957 20.6766 16.32C20.6293 16.3304 20.5919 16.3231 20.5415 16.3335C20.4635 16.3496 20.4761 16.3625 20.4292 16.3845C20.3709 16.4119 20.2998 16.4015 20.2432 16.4361C20.1786 16.4758 20.133 16.4701 20.0688 16.4994C20.0074 16.5277 20.0436 16.5384 19.9634 16.557C19.7478 16.607 19.9467 16.568 19.7261 16.646C19.6694 16.6662 19.7106 16.6479 19.6801 16.6744C19.6244 16.7225 19.5832 16.7017 19.5221 16.754L19.1013 17.0014C19.0658 17.0309 19.0129 17.0423 18.9713 17.0791L18.9074 17.1194C18.9046 17.121 18.9005 17.1228 18.8977 17.1247C18.864 17.1455 18.8889 17.131 18.8722 17.1436C18.7803 17.2135 18.7381 17.2305 18.6336 17.3208C18.5789 17.3683 18.566 17.3271 18.5594 17.4096C18.4316 17.4203 18.1099 17.7734 18.0045 17.8791L17.4477 18.5253C17.4159 18.5586 17.4436 18.5149 17.4115 18.5634L17.3165 18.7207C17.2904 18.7654 17.291 18.7535 17.2649 18.7881L17.1613 18.9517C17.1531 18.9668 17.1566 18.9662 17.1393 18.9892L17.0666 19.1094C17.0383 19.1585 17.0376 19.1308 17.0131 19.1894C16.9662 19.3017 16.885 19.4191 16.8447 19.5258C16.823 19.5834 16.817 19.5645 16.7928 19.6076C16.7742 19.6407 16.7742 19.6674 16.7547 19.7033C16.6562 19.8843 16.7286 19.7622 16.6842 19.8852C16.6659 19.9356 16.6622 19.9101 16.636 19.9557C16.5901 20.0369 16.665 19.9605 16.5643 20.1364C16.5369 20.1842 16.5473 20.1817 16.5344 20.2399C16.5067 20.3617 16.4809 20.2827 16.4617 20.4344C16.4614 20.437 16.4548 20.4798 16.4535 20.4857C16.4434 20.527 16.4532 20.5008 16.4378 20.5292C16.3912 20.6154 16.3928 20.6091 16.377 20.7208C16.3669 20.7913 16.3673 20.7658 16.3386 20.8162C16.2949 20.893 16.3153 20.9509 16.2902 21.0201C16.2634 21.0941 16.2307 21.1369 16.2285 21.2257C16.2266 21.3012 16.2197 21.3808 16.1907 21.44C16.1451 21.5332 16.1573 21.6487 16.1375 21.7582C16.1277 21.8123 16.1155 21.7972 16.0985 21.8529C16.0535 21.999 16.0765 22.1856 16.0648 22.3389C16.0588 22.4176 16.0292 22.4707 16.0138 22.5551C15.9993 22.6344 16.0119 22.7121 15.9997 22.7933C15.9757 22.9513 15.9839 23.8382 15.9905 24.062L16.0185 24.4199C16.0667 24.6285 16.0535 24.5612 16.0651 24.7743C16.0686 24.8391 16.0768 24.8715 16.0802 24.9524C16.0837 25.0377 16.1268 25.0984 16.1501 25.2835C16.1586 25.3515 16.1542 25.3965 16.1759 25.4506C16.1885 25.4821 16.1973 25.4884 16.2055 25.5101C16.2373 25.597 16.2152 25.6939 16.2373 25.7754C16.2571 25.8484 16.2857 25.8456 16.2996 25.9211C16.3449 26.1735 16.3591 26.058 16.3817 26.2248C16.399 26.3529 16.4371 26.3551 16.456 26.4474C16.4843 26.5849 16.5149 26.5717 16.5347 26.6658C16.5545 26.7602 16.547 26.7353 16.5885 26.8049C16.6257 26.8672 16.6071 26.8873 16.6351 26.9512C16.6549 26.9962 16.6612 26.9874 16.6754 27.0148C16.6858 27.0353 16.6779 27.0136 16.6877 27.0472C16.693 27.0658 16.6905 27.0712 16.698 27.0963C16.7232 27.1791 16.7396 27.1328 16.7685 27.2188C16.7903 27.2833 16.8088 27.2893 16.835 27.3453C16.846 27.3689 16.8475 27.3925 16.856 27.4133C16.8756 27.4608 16.8724 27.435 16.8985 27.475L16.9838 27.6418C17.0112 27.6858 17.0178 27.7308 17.0505 27.7683C17.1025 27.8278 17.1387 27.9165 17.1802 27.9798C17.2164 28.0345 17.2007 27.987 17.229 28.0349C17.2699 28.1035 17.2624 28.129 17.3624 28.2429L18.018 29.0275C18.036 29.047 18.0457 29.0618 18.0659 29.0835L18.1788 29.1931C18.1811 29.1949 18.1842 29.1981 18.1864 29.2003L18.4284 29.4036C18.4322 29.4064 18.4533 29.4216 18.4542 29.4222L18.5886 29.5402C18.6598 29.6041 18.7535 29.6466 18.825 29.7045C18.8464 29.7218 18.8543 29.7221 18.8794 29.7394L19.1127 29.8921C19.1608 29.9173 19.1394 29.9138 19.1725 29.9361C19.2203 29.9682 19.1945 29.9443 19.2474 29.9651C19.3046 29.9878 19.3053 30.0151 19.3679 30.0375C19.4349 30.0614 19.4302 30.0834 19.4903 30.108C19.535 30.1262 19.529 30.1099 19.57 30.1322C19.6386 30.17 19.5778 30.1694 19.6987 30.1967C19.7852 30.2163 19.7207 30.2254 19.914 30.2782C19.9826 30.2971 19.9306 30.2792 19.9823 30.3138L20.2595 30.4227C20.3451 30.4403 20.3599 30.4192 20.432 30.458C20.54 30.5159 20.63 30.4913 20.7329 30.5433C20.8207 30.5876 20.9708 30.5845 21.0832 30.5939C21.1745 30.6015 21.1571 30.6178 21.2308 30.6396L22.4044 30.6534C22.6266 30.6415 22.552 30.678 22.7711 30.6043C22.8954 30.5628 23.0603 30.5942 23.2041 30.5329C23.2199 30.5263 23.1947 30.5322 23.2375 30.5215C23.2381 30.5215 23.2872 30.513 23.2885 30.513C23.4843 30.4841 23.4525 30.4482 23.6048 30.4284C23.658 30.4214 23.7153 30.3909 23.7559 30.3717C23.8053 30.3484 23.8758 30.3566 23.9255 30.3333C23.9891 30.3037 23.9774 30.2871 24.0665 30.2663C24.1565 30.2452 24.1254 30.2191 24.2047 30.1967C24.2585 30.1816 24.2314 30.2024 24.2837 30.1719C24.3781 30.1165 24.4061 30.1256 24.4914 30.0677L24.6207 29.9893C24.6894 29.9352 24.8042 29.8927 24.87 29.8379L24.9364 29.8005C25.011 29.7668 25.1152 29.6774 25.1734 29.6214C25.2124 29.584 25.1762 29.6082 25.2294 29.5736C25.2807 29.5402 25.2968 29.5194 25.3465 29.4829L25.6549 29.1827C25.6767 29.1594 25.6782 29.1669 25.7081 29.132L25.7723 29.0624C25.7742 29.0602 25.7771 29.0568 25.7793 29.0543C25.8705 28.9482 25.9609 28.8472 26.0345 28.7304C26.0565 28.6955 26.0597 28.7014 26.082 28.6738C26.1107 28.6382 26.0993 28.6442 26.1189 28.6064L26.2029 28.4827C26.2413 28.4308 26.2611 28.4292 26.2794 28.3508C26.3401 28.3955 26.3222 28.4752 26.3502 28.5623C26.4308 28.8144 26.3581 29.1452 26.4229 29.3803C26.4748 29.5689 26.4367 29.7196 26.466 29.9163C26.4814 30.0195 26.4585 30.3554 26.6209 30.3554H30.3026C30.4316 30.3554 30.4064 30.2358 30.4064 30.1476C30.4064 30.0438 30.4061 29.9396 30.4064 29.8357L30.3529 28.9539C30.3051 28.6152 30.3318 28.0884 30.3318 27.7277C30.3318 27.5055 30.3171 27.3308 30.3171 27.119V10.5189C30.3171 10.4644 30.3167 10.41 30.3171 10.3555L30.3139 10.2397C30.2979 10.1623 30.2657 10.1478 30.1685 10.1478H26.0119C25.9272 10.1478 25.908 10.1937 25.9071 10.2803L25.908 17.6459L25.9086 17.6469Z" fill="#B9234D"/>
<path fill-rule="evenodd" clip-rule="evenodd" d="M9.74159 11.2327V30.2676C9.74159 30.3079 9.74851 30.3085 9.75638 30.3419C9.78974 30.3497 9.79037 30.3567 9.83066 30.3567H13.9873C14.0553 30.3567 14.1506 30.3479 14.1506 30.2824V11.2324C14.1506 11.1868 14.1072 11.1729 14.0616 11.1729H9.80076C9.76614 11.1729 9.74127 11.1975 9.74127 11.2324L9.74159 11.2327Z" fill="#B9234D"/>
<path fill-rule="evenodd" clip-rule="evenodd" d="M2.55753 37.9337H37.6084V2.88285H2.55753V37.9337ZM0.0831299 40.4084H40.0831V0.408447H0.0831299V40.4084Z" fill="#B9234D"/>
</svg>
