<svg width="40" height="40" viewBox="0 0 40 40" fill="none" xmlns="http://www.w3.org/2000/svg">
<path fill-rule="evenodd" clip-rule="evenodd" d="M2.47473 37.5256H37.5256V2.47473H2.47473V37.5256ZM0 40H40V0H0V40Z" fill="#2FA3F8"/>
<path fill-rule="evenodd" clip-rule="evenodd" d="M13.2244 19.3527C13.0123 19.3527 12.5641 19.3587 12.3793 19.3363C12.2912 19.3256 12.2122 19.2841 12.0958 19.2784L11.7543 19.2636C11.742 19.2104 11.7247 19.1938 11.7247 19.1302V13.4304C11.7247 13.3439 11.9013 13.3908 12.0413 13.3313C12.1213 13.2973 12.3082 13.291 12.4089 13.2831C12.6793 13.262 12.9106 13.2224 13.18 13.2224C13.5728 13.2224 13.9882 13.2019 14.3691 13.2806L14.6212 13.3105C14.7093 13.3294 14.7386 13.3631 14.8427 13.3713C15.08 13.3898 14.9979 13.4238 15.1464 13.4534C15.2484 13.4739 15.205 13.4644 15.272 13.506C15.3274 13.5406 15.3645 13.5252 15.4199 13.551C15.4882 13.5824 15.4391 13.5862 15.5521 13.6117L15.7403 13.7058C15.7699 13.7263 15.7492 13.7137 15.7636 13.7269L15.7787 13.7414C15.7813 13.7433 15.7847 13.7461 15.7872 13.7477L15.9723 13.8594C15.995 13.8742 15.9742 13.8603 15.9959 13.8805L16.0267 13.9091C16.2546 14.0693 16.2253 14.0772 16.4208 14.2723L16.7251 14.7252C16.7472 14.7539 16.7424 14.7359 16.7626 14.7768C16.7991 14.8502 16.8381 14.8886 16.8485 14.9729C16.8655 15.1114 16.8979 15.0818 16.9344 15.2728C16.9413 15.3084 16.9398 15.3135 16.9536 15.3427C16.9747 15.3877 16.9757 15.3625 16.9911 15.4091C17.0361 15.5445 16.9974 15.773 17.0336 15.9454C17.048 16.0147 17.0698 16.0443 17.0698 16.117C17.0698 16.1418 17.0172 16.3599 17.0103 16.488C17.004 16.6057 17.037 16.7984 16.9766 16.8994C16.9385 16.9633 16.9398 16.9913 16.9234 17.069C16.9039 17.1619 16.8793 17.1367 16.8576 17.2261C16.8387 17.3044 16.8595 17.3309 16.8129 17.4039C16.7843 17.4486 16.7796 17.5194 16.7468 17.5606L16.6269 17.7523C16.5992 17.8049 16.5646 17.8329 16.542 17.8901C16.5124 17.9647 16.463 18.0302 16.4054 18.095L15.8914 18.5759C15.8329 18.6103 15.8294 18.6291 15.7677 18.6603L15.5921 18.7815C15.5899 18.7833 15.5867 18.7865 15.5845 18.7884L15.4999 18.8372C15.4643 18.8623 15.4744 18.8633 15.4234 18.8797C15.3227 18.9124 15.328 18.9247 15.2692 18.9483C15.1807 18.9842 15.1952 18.9457 15.1049 19.0065C15.0372 19.0521 15.0036 19.0263 14.9416 19.0657C14.8616 19.1167 14.9249 19.1031 14.7782 19.1251C14.6234 19.1484 14.6658 19.178 14.4122 19.2045C14.2567 19.2208 14.2916 19.2756 14.0399 19.2775C13.9237 19.2781 13.75 19.2926 13.6364 19.3193C13.5281 19.3452 13.355 19.3521 13.2234 19.3521L13.2244 19.3527ZM7.21021 10.1352C7.18976 10.1657 7.16583 10.1736 7.16583 10.2095V29.8914C7.16583 29.9638 7.2675 29.9805 7.34397 29.9805H11.5466C11.5894 29.9805 11.6098 29.9751 11.6457 29.961C11.7175 29.9327 11.714 29.8949 11.7143 29.8958L11.7247 23.1675C11.7247 23.0832 11.7225 22.9973 11.7228 22.9136C11.7238 22.7943 11.7729 22.821 11.9032 22.8254C11.985 22.8283 12.0404 22.8383 12.1411 22.8402C12.2396 22.8421 12.2736 22.8783 12.3636 22.8849C12.7129 22.911 13.9162 22.9189 14.2281 22.8493C14.2835 22.8371 14.3096 22.8424 14.3684 22.8412C14.5101 22.8377 14.7515 22.8314 14.8969 22.8053C14.9982 22.787 14.9573 22.7826 15.1317 22.7578C15.2242 22.7446 15.3082 22.7524 15.3932 22.7373C15.4901 22.7203 15.5191 22.6807 15.6151 22.6769C15.7167 22.6728 15.7841 22.6734 15.8744 22.6542C15.988 22.6303 15.9512 22.6161 16.101 22.5988C16.2571 22.5809 16.2798 22.5283 16.4321 22.5142C16.5511 22.5031 16.5454 22.4625 16.6452 22.4452C16.6952 22.4364 16.7302 22.4424 16.7805 22.432C16.8428 22.4191 16.8315 22.4169 16.8743 22.392C16.9354 22.3565 17.0351 22.3562 17.0959 22.3168L17.2082 22.2806C17.2759 22.2684 17.2561 22.2762 17.3042 22.2429C17.3618 22.2026 17.4474 22.2032 17.5079 22.1645L17.619 22.127C17.697 22.1116 17.7231 22.0761 17.8188 22.0446C17.8906 22.021 17.8528 22.0235 17.9003 21.9927C17.9472 21.9624 18.0064 21.959 18.0448 21.9291C18.0791 21.9023 18.0278 21.9244 18.0898 21.8998C18.1527 21.8753 18.1364 21.902 18.1946 21.8561C18.2664 21.7994 18.2717 21.834 18.3372 21.7909L18.4187 21.7387C18.4952 21.7132 18.5713 21.6553 18.6403 21.604C18.6698 21.5822 18.7029 21.5756 18.7359 21.5511L19.2722 21.1816C19.2748 21.1797 19.2782 21.1772 19.2807 21.1753L19.8649 20.661C19.9801 20.5307 20.1683 20.3819 20.2523 20.2321L20.3747 20.0725C20.433 20.0161 20.5277 19.8623 20.5759 19.7836L20.6517 19.6517C20.6759 19.6045 20.6873 19.6161 20.7128 19.5642L20.8132 19.3826C20.8884 19.2617 20.8701 19.2491 20.9085 19.196C20.9718 19.1091 20.9343 19.0971 21.0007 19.0062C21.0319 18.9637 21.0234 18.9618 21.036 18.908C21.0546 18.828 21.0558 18.8655 21.0886 18.8117C21.1197 18.7604 21.1008 18.7654 21.1188 18.7081C21.1518 18.6008 21.137 18.7409 21.1918 18.4992C21.2129 18.406 21.2434 18.417 21.2664 18.2917C21.2808 18.2131 21.2723 18.2389 21.3054 18.1822C21.3649 18.0812 21.3262 18.0532 21.3561 17.9506C21.3772 17.8782 21.4162 17.8196 21.4212 17.7337C21.4288 17.6006 21.4492 17.6059 21.482 17.4977C21.516 17.3844 21.492 17.2298 21.5144 17.1147C21.52 17.0854 21.5427 17.041 21.5518 17.0036C21.6094 16.7681 21.5647 16.4452 21.5855 16.1912C21.6009 16.0062 21.6038 15.5338 21.5786 15.3654C21.5647 15.2735 21.5786 15.1879 21.5525 15.1095L21.4999 14.8801C21.487 14.7797 21.5046 14.7126 21.47 14.6283C21.4448 14.5672 21.4492 14.6163 21.4316 14.5329C21.4165 14.4602 21.4152 14.3787 21.3737 14.3088C21.3369 14.2471 21.3532 14.272 21.3447 14.1892C21.3334 14.0797 21.2919 14.0637 21.2745 13.9774C21.2412 13.8131 21.228 13.8597 21.1984 13.7716C21.1839 13.7282 21.1893 13.6929 21.1688 13.6529C21.1439 13.6048 21.132 13.6275 21.1134 13.5598C21.0712 13.4071 21.0536 13.4427 21.0341 13.3571C21.0196 13.2929 21.0309 13.3086 20.9932 13.2646L20.9441 13.1654C20.9236 13.1204 20.9098 13.1292 20.8877 13.088C20.8544 13.025 20.872 13.0307 20.8176 12.9505C20.7861 12.9045 20.8122 12.9451 20.7946 12.8992C20.77 12.8337 20.7468 12.8252 20.72 12.766L20.5104 12.4708C20.4585 12.4066 20.4314 12.3292 20.3751 12.2647C20.3584 12.2455 20.364 12.2593 20.3389 12.2263C20.3209 12.2023 20.3282 12.2042 20.3083 12.1825L20.2057 12.0774C20.2035 12.0752 20.2007 12.072 20.1985 12.0698C20.1966 12.0676 20.1938 12.0642 20.1919 12.0617C20.1878 12.0569 20.1749 12.0377 20.1733 12.0355C20.1459 12.0012 20.1639 12.0236 20.1362 11.9984C20.0389 11.91 19.9675 11.7885 19.8671 11.7032L19.485 11.3724C19.4825 11.3705 19.479 11.368 19.4765 11.3661L19.2458 11.1962C19.2269 11.1795 19.242 11.1851 19.208 11.16L18.909 10.9541C18.8615 10.916 18.8184 10.9189 18.7734 10.8821C18.7375 10.8528 18.6809 10.8411 18.6393 10.8084C18.5798 10.7615 18.6318 10.7864 18.5446 10.7546C18.4694 10.7272 18.5247 10.7392 18.4637 10.702C18.4152 10.6724 18.4102 10.6923 18.3608 10.6567C18.306 10.617 18.3583 10.6287 18.2758 10.6082C18.1867 10.5859 18.1616 10.5437 18.0775 10.5245C17.9881 10.5041 17.962 10.4663 17.8742 10.4458C17.7785 10.4232 17.7952 10.3867 17.6737 10.3643C17.5696 10.3451 17.6369 10.3593 17.5702 10.3193C17.5098 10.2834 17.4062 10.2948 17.3492 10.2579C17.2517 10.195 17.2171 10.2331 17.1264 10.1985C17.088 10.184 17.0855 10.1679 17.0408 10.1506C16.9845 10.1292 16.8661 10.1302 16.8073 10.1018C16.7015 10.0509 16.5542 10.0735 16.4557 10.0225C16.3553 9.97091 16.2115 9.99232 16.1076 9.95486C15.9134 9.88499 15.7724 9.92338 15.599 9.88436C15.4382 9.84816 15.4451 9.82173 15.2298 9.82267C15.108 9.8233 14.9397 9.82204 14.8323 9.80441C14.7977 9.79843 14.7672 9.78428 14.7146 9.77389C14.483 9.72794 14.151 9.74745 13.8932 9.74871C13.7802 9.74934 13.7317 9.73297 13.6263 9.7336C12.8631 9.73675 12.1376 9.75154 11.3687 9.74871C11.2243 9.74808 10.9649 9.76475 10.8491 9.79339C10.6348 9.84658 10.2706 9.82331 10.0324 9.82299C9.68053 9.82268 9.5241 9.89821 9.24525 9.89727C9.07089 9.89664 8.8723 9.91016 8.72816 9.94478C8.54813 9.9879 8.26896 9.95013 8.09366 10.0084C8.03669 10.0272 8.04992 10.0398 7.98256 10.0455C7.88216 10.054 7.81953 10.0581 7.71504 10.0603C7.52652 10.0644 7.49126 10.1349 7.21052 10.1349L7.21021 10.1352Z" fill="#2FA3F8"/>
<path fill-rule="evenodd" clip-rule="evenodd" d="M22.6388 25.9875C22.5299 25.9875 22.5746 26.0643 22.5347 26.1505C22.5029 26.2182 22.4821 26.2553 22.4761 26.3441C22.4727 26.3919 22.473 26.4133 22.4613 26.4483C22.4459 26.4955 22.4349 26.493 22.4176 26.538C22.3934 26.6006 22.4034 26.6893 22.3852 26.7579C22.3531 26.8788 22.3468 26.757 22.3122 27.0412C22.2967 27.1677 22.275 27.0252 22.2363 27.3515C22.2259 27.4406 22.1863 27.4371 22.1693 27.5369C22.1573 27.6083 22.1652 27.6685 22.1309 27.7358C22.0881 27.8202 22.0984 27.8318 22.0837 27.941C22.0789 27.976 22.0739 28.0106 22.0619 28.038C22.0471 28.0723 22.033 28.0767 22.0213 28.1308C22.0043 28.2082 22.011 28.2863 21.9861 28.348C21.9046 28.5506 21.9502 28.5349 21.92 28.6382C21.9062 28.6863 21.8939 28.6724 21.8734 28.725C21.8482 28.788 21.8577 28.8871 21.8413 28.9453C21.8133 29.0467 21.671 29.2409 21.92 29.3186C21.9877 29.3397 21.9455 29.3224 21.9899 29.3526C22.0566 29.3979 22.0654 29.3793 22.1261 29.4095C22.196 29.4442 22.1428 29.4486 22.2546 29.4741C22.3622 29.4986 22.2939 29.5011 22.3713 29.5354C22.4434 29.5675 22.4377 29.5291 22.5164 29.5833C22.5624 29.6151 22.5079 29.5924 22.5734 29.6154C22.6026 29.6255 22.6385 29.6302 22.658 29.6346C22.7292 29.6503 22.72 29.6764 22.7909 29.6947C22.8409 29.7076 22.8957 29.7045 22.9438 29.7199C23.0115 29.7416 22.9806 29.7586 23.0795 29.7772C23.1349 29.7875 23.1887 29.7787 23.2419 29.8077C23.3634 29.8741 23.4351 29.8429 23.5267 29.8939C23.5944 29.9317 23.6683 29.9314 23.7533 29.9493C23.9135 29.9833 23.6954 29.9924 24.153 30.0249C24.2257 30.0302 24.2415 30.0532 24.2994 30.0714C24.4001 30.1032 24.5414 30.0828 24.6503 30.1067C24.7157 30.1212 24.722 30.1372 24.7834 30.1517C24.9455 30.1907 25.1548 30.1649 25.3185 30.1957C25.5894 30.247 26.459 30.2716 26.7675 30.2622L27.1234 30.2471C27.3082 30.2471 27.4838 30.2524 27.6446 30.2039C27.8029 30.1561 28.0182 30.1929 28.174 30.1542C28.2244 30.1416 28.2369 30.1215 28.3046 30.1067C28.4107 30.0834 28.5504 30.1177 28.6527 30.0686C28.7106 30.0409 28.726 30.0296 28.7987 30.0214C28.8315 30.0179 28.9262 30.0072 28.9523 29.9968C29.032 29.9663 28.9646 29.9613 29.0914 29.9427C29.1509 29.9339 29.2154 29.9392 29.2598 29.9182C29.324 29.8883 29.2872 29.8779 29.3955 29.8606C29.4729 29.8483 29.4682 29.8467 29.5261 29.8127C29.59 29.7753 29.6095 29.7916 29.6787 29.7724C29.7502 29.7526 29.7382 29.7321 29.8109 29.7117C29.8288 29.7067 29.8654 29.7013 29.883 29.6947C29.9582 29.6673 29.9145 29.6598 29.9743 29.6377C29.9774 29.6365 30.0086 29.6292 30.0098 29.6289C30.068 29.6144 30.0813 29.5978 30.1304 29.5713C30.1593 29.5556 30.1766 29.555 30.209 29.5462L30.4004 29.4552C30.4435 29.4335 30.4312 29.4335 30.4621 29.413L30.5669 29.3548C30.6034 29.3262 30.6641 29.3139 30.7025 29.2827C30.7976 29.2062 30.7202 29.2856 30.8722 29.1704C30.9738 29.0933 31.089 29.0325 31.1844 28.9482L31.3185 28.8446C31.3566 28.8169 31.3506 28.8311 31.355 28.7773C31.4063 28.7729 31.4702 28.7096 31.5149 28.6699L32.1135 27.9624C32.132 27.9357 32.1223 27.942 32.1405 27.9152L32.2145 27.7962C32.2384 27.7443 32.2114 27.794 32.2444 27.7519C32.2658 27.7248 32.24 27.7758 32.2689 27.7172C32.28 27.6949 32.2815 27.6785 32.2881 27.6622C32.3124 27.6039 32.4166 27.4658 32.4358 27.394C32.4591 27.3056 32.4984 27.2845 32.5166 27.1929C32.5327 27.1114 32.5764 27.0872 32.5934 27.0025C32.6045 26.9477 32.5966 26.9361 32.6174 26.8927C32.6403 26.8445 32.6469 26.8684 32.6636 26.7907C32.6787 26.7208 32.6794 26.6425 32.7146 26.5745C32.7634 26.4804 32.7432 26.3214 32.7646 26.2088C32.7776 26.1411 32.7851 26.1552 32.8008 26.0967C32.8559 25.8937 32.8298 25.2139 32.7779 25.0244C32.7464 24.9089 32.7687 24.7078 32.7294 24.5983C32.6986 24.5127 32.6838 24.5432 32.6756 24.4293C32.6693 24.3424 32.6658 24.3012 32.6287 24.2385C32.578 24.1536 32.6208 24.0997 32.5409 23.9701C32.5188 23.9342 32.5236 23.9248 32.51 23.8823C32.4839 23.8011 32.4647 23.8395 32.4376 23.7321C32.4137 23.6377 32.3901 23.6758 32.3612 23.5707C32.3442 23.5084 32.3111 23.4741 32.2841 23.4105C32.2746 23.3878 32.2771 23.3888 32.2649 23.3702C32.2343 23.3239 32.2677 23.374 32.2372 23.3384C32.156 23.244 32.0943 23.12 32.0156 23.0259L31.8894 22.855C31.8189 22.7433 31.6429 22.6057 31.5419 22.5047L31.3899 22.3596C31.3795 22.3492 31.3707 22.3413 31.3594 22.331C31.3068 22.2828 31.258 22.2636 31.2017 22.2214L31.1633 22.1856C31.1369 22.1642 31.1227 22.1623 31.0922 22.1383L30.8885 22.0005C30.886 21.9986 30.8822 21.9961 30.8797 21.9942C30.8464 21.9681 30.8738 21.9728 30.8155 21.9397L30.6509 21.8372C30.5716 21.7827 30.6327 21.8104 30.5269 21.7679C30.4778 21.7481 30.5008 21.7459 30.4577 21.7185C30.4111 21.6892 30.4168 21.7068 30.3692 21.688C30.2912 21.6574 30.3658 21.6801 30.2994 21.6389C30.2569 21.6127 30.2131 21.6143 30.1763 21.5838C30.142 21.5555 30.0995 21.547 30.0561 21.5259C30.0155 21.5061 30.0287 21.4979 29.9859 21.4771C29.9525 21.4607 29.9321 21.4623 29.9 21.4444C29.8613 21.4227 29.8748 21.4164 29.8295 21.3962C29.7977 21.3817 29.7662 21.3814 29.7357 21.371C29.6558 21.344 29.6809 21.3298 29.5661 21.303C29.4858 21.2845 29.493 21.2511 29.415 21.2316L29.3187 21.2089C29.2727 21.1844 29.3127 21.1844 29.2463 21.1624C29.2142 21.1517 29.1881 21.1545 29.1484 21.1413C29.0823 21.1192 29.054 21.0853 28.9816 21.0705L28.8976 21.0355C28.8535 21.0056 28.7871 21.0012 28.7298 20.9805C28.6829 20.9635 28.7065 20.9616 28.6559 20.9354C28.5998 20.9068 28.5334 20.9024 28.4815 20.8722C28.4113 20.8313 28.3616 20.8467 28.3021 20.814C28.2609 20.7916 28.2826 20.7853 28.2288 20.7686C28.1894 20.7564 28.1633 20.762 28.129 20.7494C28.0566 20.7227 28.095 20.7038 27.9763 20.6796C27.8895 20.6616 27.8917 20.6311 27.8083 20.6103C27.7041 20.5842 27.7217 20.5691 27.6456 20.5354C27.6122 20.5206 27.5892 20.5232 27.5546 20.5074C27.5124 20.4882 27.5297 20.4841 27.4822 20.4608C27.4517 20.4457 27.4196 20.4438 27.3928 20.4316C27.3897 20.43 27.3859 20.4281 27.3831 20.4265L27.1716 20.2965C27.1118 20.2723 26.9399 20.148 26.8912 20.1017L26.792 20.0076C26.6394 19.8339 26.7077 19.9069 26.6365 19.7772C26.5437 19.6079 26.5925 19.6973 26.5613 19.4952C26.5415 19.3659 26.5547 19.2161 26.5793 19.0773C26.5981 18.9706 26.6189 19.0131 26.651 18.9117C26.6806 18.8189 26.6491 18.8834 26.6922 18.8343C26.7284 18.7934 26.7432 18.7427 26.7854 18.705C26.8122 18.681 26.7876 18.7075 26.8166 18.6769L27.0155 18.5196C27.0671 18.4868 27.0287 18.4944 27.0825 18.468C27.096 18.4613 27.1099 18.4588 27.1266 18.4525C27.221 18.417 27.1678 18.3959 27.288 18.3764C27.3925 18.3594 27.3806 18.3408 27.4618 18.3125C27.5159 18.2933 27.6081 18.303 27.6773 18.2904C27.7186 18.2829 27.7422 18.2785 27.7746 18.2687C27.8212 18.2552 27.8187 18.2486 27.8656 18.241C28.0868 18.2061 28.3584 18.2212 28.5775 18.2376L28.7805 18.2722C28.8837 18.2968 29.133 18.2857 29.2113 18.3166C29.2825 18.3446 29.2796 18.3638 29.3933 18.3723C29.4424 18.3757 29.4631 18.3776 29.5 18.3842C29.6164 18.4056 29.6098 18.4396 29.782 18.4585C29.844 18.4654 29.8355 18.4563 29.8836 18.4758C29.9192 18.4903 29.9349 18.5061 29.9758 18.5174C30.0652 18.5419 30.0885 18.5208 30.1628 18.568C30.2556 18.6266 30.2519 18.5932 30.3441 18.6244C30.4064 18.6455 30.3705 18.6448 30.4183 18.6691C30.463 18.6917 30.4583 18.6798 30.5156 18.6905C30.627 18.7109 30.5719 18.7383 30.6956 18.7629C30.7255 18.7688 30.7582 18.7733 30.7878 18.789C30.8303 18.8116 30.8064 18.812 30.8609 18.8349C30.887 18.846 30.9197 18.8507 30.9493 18.8652C30.9924 18.8859 30.9748 18.8903 31.022 18.9111C31.0557 18.9262 31.0793 18.9234 31.1129 18.9391C31.1986 18.9791 31.1485 18.9819 31.2779 19.0118C31.3333 19.0247 31.3279 19.0291 31.3676 19.0556C31.4274 18.9662 31.4044 18.9284 31.4393 18.8453C31.4538 18.8107 31.4705 18.7997 31.4831 18.7553C31.4966 18.7071 31.4975 18.6782 31.5013 18.625C31.5101 18.5007 31.557 18.5105 31.5721 18.4138C31.5882 18.3106 31.5797 18.2747 31.6244 18.1841C31.6618 18.1073 31.6439 18.0314 31.6694 17.9468C31.6804 17.9099 31.698 17.9021 31.7138 17.8577C31.7424 17.7774 31.7267 17.6884 31.7581 17.6198C31.8296 17.4637 31.7937 17.3913 31.8513 17.2827C31.908 17.1763 31.8705 17.1439 31.8979 17.0473C31.9187 16.9742 31.9199 17.0133 31.9445 16.9604C31.9615 16.9239 31.9596 16.8852 31.9659 16.8333C31.9829 16.6913 32.0124 16.7127 32.0323 16.6177C32.0534 16.5173 32.0386 16.4647 32.0801 16.3835C32.133 16.2793 32.1081 16.2774 32.1302 16.1515C32.1462 16.0609 32.2066 16.036 32.1947 15.9435C32.1796 15.8264 32.1182 15.8595 32.0313 15.8236C31.9769 15.8009 32.008 15.7968 31.9486 15.7729C31.9149 15.7594 31.8693 15.7572 31.8312 15.7418C31.783 15.7219 31.8047 15.7144 31.7471 15.6924C31.7034 15.6757 31.671 15.6788 31.6332 15.6577C31.5907 15.6338 31.6137 15.63 31.5463 15.6112C31.4135 15.5737 31.4173 15.5463 31.3452 15.5303C31.1652 15.4906 31.3556 15.5743 31.1224 15.4708C31.079 15.4516 31.0497 15.4522 30.9974 15.4472C30.88 15.4358 30.8763 15.3943 30.785 15.3776C30.6912 15.3603 30.632 15.3603 30.5596 15.3207C30.4904 15.2826 30.4092 15.2914 30.3135 15.2845C30.2257 15.2782 30.1987 15.2388 30.0917 15.2243C30.0108 15.2133 29.9116 15.2196 29.8263 15.2074C29.7467 15.196 29.7086 15.1636 29.6051 15.1466C29.4858 15.1268 29.3388 15.1343 29.218 15.118C29.1877 15.1139 29.1289 15.0994 29.0933 15.0941C28.8305 15.0563 28.0607 15.0377 27.7586 15.0469C27.6777 15.0491 27.6358 15.0626 27.5363 15.0623C27.3683 15.0613 27.2119 15.0541 27.0869 15.1026C26.9626 15.151 26.8024 15.117 26.6532 15.1438C26.5572 15.1611 26.5588 15.1841 26.4741 15.2023C26.4027 15.2177 26.314 15.2108 26.2435 15.224C26.1484 15.242 26.1729 15.27 26.0659 15.2841C25.9737 15.2964 25.946 15.2904 25.8761 15.332C25.8012 15.376 25.681 15.366 25.6014 15.4135C25.5535 15.4421 25.4601 15.4447 25.411 15.4752C25.3181 15.5334 25.3225 15.5057 25.2357 15.5378C25.19 15.5548 25.1916 15.5671 25.1494 15.585C25.117 15.5989 25.0862 15.5998 25.0557 15.6102C24.9914 15.6319 25.0308 15.6263 24.9836 15.6568C24.9499 15.6788 24.937 15.6744 24.8958 15.6876C24.8347 15.7072 24.8549 15.7219 24.7236 15.7679C24.6802 15.7833 24.6997 15.7773 24.6846 15.7883C24.6821 15.7902 24.6792 15.7934 24.6767 15.7953C24.6377 15.8255 24.609 15.8277 24.5659 15.8478C24.503 15.8771 24.5423 15.8705 24.4983 15.8991C24.475 15.9142 24.4432 15.9227 24.4183 15.9378L24.2408 16.0574C24.1407 16.1087 24.1495 16.0971 24.052 16.1805C23.8644 16.341 23.7536 16.3769 23.5541 16.5881L23.3385 16.7882C23.3281 16.8002 23.3193 16.8125 23.3117 16.821L23.2548 16.8827C23.2523 16.8861 23.245 16.8965 23.2425 16.9L23.003 17.1798C22.969 17.2232 22.9759 17.2081 22.9482 17.2588L22.8721 17.3607C22.845 17.4102 22.8242 17.4073 22.7949 17.4618C22.7707 17.5071 22.7877 17.503 22.7506 17.5508L22.6253 17.7819C22.596 17.8467 22.5979 17.8001 22.5432 17.9373C22.5183 17.9993 22.4871 18.0229 22.4692 18.101C22.4528 18.1718 22.4579 18.1422 22.4255 18.191C22.3786 18.2615 22.4157 18.292 22.3644 18.3673C22.314 18.4409 22.3238 18.4519 22.3109 18.5514C22.2958 18.6672 22.2703 18.6225 22.2476 18.7257C22.2322 18.7962 22.2391 18.8714 22.2136 18.9441C22.1875 19.019 22.1752 19.0496 22.1645 19.1327C22.1548 19.2092 22.1664 19.2831 22.1548 19.3602C22.1435 19.4348 22.1516 19.5094 22.1381 19.5812C22.0764 19.9069 22.1346 19.916 22.1601 20.2282C22.1664 20.3022 22.1586 20.3897 22.1605 20.4656C22.163 20.5833 22.1875 20.5892 22.2184 20.6601C22.2407 20.7114 22.2373 20.7973 22.253 20.8627C22.2709 20.9367 22.3024 20.9509 22.314 21.0393C22.3269 21.1384 22.348 21.1372 22.3814 21.2096C22.3975 21.2442 22.394 21.2691 22.4094 21.3005C22.4469 21.378 22.4362 21.3018 22.4661 21.3776C22.4849 21.4258 22.4613 21.416 22.4941 21.4683C22.5218 21.5127 22.5249 21.4865 22.5432 21.5378C22.5554 21.5728 22.5485 21.5923 22.5693 21.6304C22.5904 21.6684 22.5973 21.6571 22.619 21.6996C22.6842 21.8261 22.8289 22.0093 22.9221 22.1239L22.9986 22.2258C23.0121 22.2413 23.0137 22.2457 23.0238 22.2601L24.0643 23.1647C24.1014 23.1921 24.0847 23.1899 24.1325 23.2147C24.1917 23.2456 24.1813 23.255 24.2358 23.2899L24.2827 23.3173C24.2852 23.3192 24.2883 23.322 24.2909 23.3243C24.2931 23.3261 24.2962 23.3296 24.2984 23.3315C24.3006 23.3334 24.3038 23.3368 24.306 23.3387C24.34 23.3677 24.2909 23.3419 24.3503 23.3683L24.5058 23.4505C24.5077 23.4511 24.5508 23.4637 24.5518 23.464C24.6128 23.4907 24.5899 23.509 24.6626 23.5317C24.7472 23.5578 24.7378 23.5855 24.8199 23.6122C24.8782 23.6311 24.8536 23.6201 24.8983 23.6525L25.219 23.8218C25.2564 23.8448 25.2634 23.8398 25.309 23.8505C25.4006 23.8722 25.3657 23.9002 25.4746 23.9225C25.5586 23.9399 25.5683 23.9776 25.6524 23.9971C25.7713 24.0248 25.744 24.0384 25.8217 24.0654C25.9127 24.0969 25.9205 24.0799 26.0061 24.1334C26.0776 24.1778 26.1034 24.14 26.1824 24.1948C26.2356 24.2316 26.3143 24.2285 26.3687 24.2609C26.4103 24.2857 26.3665 24.2826 26.4446 24.304C26.5626 24.3364 26.5157 24.3131 26.6177 24.3682C26.6636 24.3931 26.7133 24.3884 26.7583 24.4057C26.8115 24.4261 26.8122 24.4529 26.8754 24.4667C27.0107 24.496 26.9639 24.5048 27.0576 24.5369C27.0995 24.5511 27.1143 24.5432 27.1574 24.5561C27.2197 24.5743 27.1883 24.5734 27.232 24.6002C27.2739 24.6256 27.2682 24.6178 27.3217 24.6294C27.4315 24.6537 27.3507 24.6247 27.402 24.6678C27.4517 24.7094 27.5121 24.7119 27.559 24.7484C27.5795 24.7641 27.5685 24.7601 27.5949 24.772C27.7139 24.8258 27.6336 24.7689 27.7214 24.8387L27.9058 24.9511C27.9087 24.9527 27.9125 24.9549 27.9153 24.9567L28.2042 25.2466L28.321 25.4418L28.3886 25.8635L28.321 26.2654C28.3027 26.3142 28.2993 26.2899 28.2731 26.3362C28.2555 26.3674 28.2565 26.3922 28.2395 26.4212C28.2111 26.47 28.2247 26.4272 28.1875 26.4882L27.9713 26.7026C27.9685 26.7044 27.9644 26.706 27.9616 26.7079L27.8177 26.7869C27.763 26.8121 27.7693 26.8351 27.7047 26.8517L27.5335 26.9182C27.4655 26.9408 27.3947 26.9361 27.3242 26.9613C27.142 27.0261 27.0841 26.9927 26.9012 27.0135C26.4345 27.0658 26.346 27.0104 25.9784 27.0113C25.89 27.0116 25.8176 27.011 25.7509 27.0016C25.6637 26.989 25.6351 26.9666 25.5485 26.9515C25.4799 26.9396 25.4094 26.9411 25.3329 26.9295C25.2804 26.9216 25.2753 26.9248 25.2366 26.9068C25.0805 26.8351 25.0626 26.876 24.9455 26.8417C24.8744 26.8209 24.8646 26.786 24.7589 26.7759C24.6393 26.7649 24.6575 26.7793 24.5631 26.7343C24.4668 26.6884 24.475 26.7133 24.3654 26.6944C24.2581 26.6761 24.3075 26.6453 24.1986 26.6236C24.0438 26.5924 24.1036 26.5792 23.9176 26.5332L23.8383 26.4939C23.7681 26.4511 23.7206 26.4753 23.6548 26.4398C23.5557 26.3866 23.5871 26.4064 23.4804 26.3768C23.4109 26.3576 23.4518 26.3639 23.4036 26.335C23.3489 26.3022 23.3256 26.3129 23.2315 26.2544C23.1921 26.2298 23.1924 26.2371 23.1459 26.2213C23.0864 26.2009 23.1144 26.2069 23.071 26.1773C23.02 26.143 23.0263 26.1619 22.9753 26.1392C22.9271 26.1178 22.9444 26.1124 22.9042 26.0914C22.868 26.0725 22.8538 26.0781 22.8164 26.0602C22.7521 26.0293 22.743 25.9869 22.6373 25.9869L22.6388 25.9875Z" fill="#2FA3F8"/>
</svg>
