<svg width="60" height="40" viewBox="0 0 60 40" fill="none" xmlns="http://www.w3.org/2000/svg">
<path fill-rule="evenodd" clip-rule="evenodd" d="M12.0131 27.1659V7.02643C12.0131 5.78668 13.027 4.59095 14.2045 4.59095H45.7955C46.9727 4.59095 47.9869 5.78633 47.9869 7.02643V27.1659C47.9869 28.4852 46.8152 29.5078 45.3391 29.5078H14.6612C13.1516 29.5078 12.0135 28.4264 12.0135 27.1659H12.0131ZM9 7.40099V26.5101C9 30.0108 11.2744 32.5255 14.3857 32.5061C18.1269 32.4833 21.8753 32.5051 25.6172 32.5051L24.2149 35.4858C23.0916 35.5027 21.9343 35.5073 20.7781 35.5024C20.0449 35.4992 19.7745 35.4401 19.3401 35.8068C18.1221 36.8354 19.0752 38.5 20.0479 38.5H39.9521C40.9495 38.5 41.8494 36.8319 40.6609 35.8058C40.2461 35.4478 39.9359 35.4992 39.2219 35.5024C38.0657 35.5077 36.9084 35.5027 35.7521 35.5027L34.3495 32.522C38.1247 32.5051 41.8728 32.4836 45.614 32.5065C46.5712 32.5125 47.1967 32.3245 47.8657 32.0066C48.449 31.7292 49.093 31.2723 49.5181 30.7982C49.9364 30.3318 50.3433 29.65 50.5979 29.002C50.8737 28.2994 51 27.4549 51 26.5105V7.40133C51 4.87219 49.7967 3.0217 47.8973 2.06038C47.2958 1.7559 46.5156 1.5 45.6133 1.5H14.3874C11.4587 1.5 9.00034 3.97916 9.00034 7.40133L9 7.40099Z" fill="#595959"/>
</svg>
